<svg width="512" height="512" viewBox="0 0 512 512" fill="none" xmlns="http://www.w3.org/2000/svg">
<g clip-path="url(#clip0_3_25)">
<circle cx="256" cy="256" r="256" fill="white"/>
<circle cx="256" cy="256" r="236" fill="black"/>
<circle cx="256" cy="256" r="216" fill="white"/>
<path d="M97 256.226L153.876 198.156L210.668 140L242.7 172.759L220.757 195.196L210.668 184.873L140.451 256.671C161.09 277.781 172.559 289.508 174.859 291.852C193.816 311.242 209.701 327.127 210.226 327.127C210.668 327.127 216.284 321.743 222.691 315.277C223.47 314.482 227.361 310.503 234.364 303.342L186.531 254.427L208.474 231.99L278.25 303.342C258.13 323.915 246.954 335.342 244.719 337.628C226.204 356.559 210.928 372 210.668 372C210.403 372 184.772 345.972 153.617 314.109C146.067 306.396 127.194 287.099 97 256.226Z" fill="black"/>
<path d="M414.188 255.774L357.311 313.844L300.519 372L268.488 339.241L290.431 316.804L300.519 327.127L370.737 255.329C350.097 234.219 338.628 222.492 336.329 220.148C317.372 200.758 301.486 184.873 300.961 184.873C300.519 184.873 294.903 190.257 288.496 196.723C287.718 197.518 283.827 201.497 276.824 208.658L324.656 257.573L302.713 280.01L232.937 208.658C253.058 188.085 264.233 176.658 266.469 174.372C284.984 155.441 300.26 140 300.519 140C300.785 140 326.416 166.028 357.571 197.891C365.121 205.604 383.994 224.901 414.188 255.774Z" fill="black"/>
</g>
<defs>
<clipPath id="clip0_3_25">
<rect width="512" height="512" fill="white"/>
</clipPath>
</defs>
</svg>
